<?xml version="1.0" encoding="UTF-8"?>
<svg id="Layer_1" data-name="Layer 1" xmlns="http://www.w3.org/2000/svg" viewBox="0 0 411.15 390.95">
  <defs>
    <style>
      .cls-1 {
        fill: #4fabcc;
      }

      .cls-1, .cls-2, .cls-3 {
        stroke-width: 0px;
      }

      .cls-2 {
        fill: #efcb17;
      }

      .cls-3 {
        fill: #4fabcb;
      }
    </style>
  </defs>
  <path class="cls-3" d="M184.6,271.74c-1.06-1.13-2.18-2.07-2.98-3.24-13.31-19.38-26.59-38.79-39.87-58.19-5.88-8.59-11.78-17.18-17.64-25.79-2.06-3.02-1.91-3.98,1.1-6.05,21.96-15.06,43.96-30.07,65.9-45.15,2.56-1.76,4.18-1.22,5.84,1.21,19.19,28.11,38.43,56.18,57.65,84.27,2.26,3.31,2.05,4.12-1.66,6.65-18.87,12.91-37.76,25.82-56.64,38.72-2.92,2-5.83,4.03-8.77,6-.78.52-1.66.89-2.93,1.55Z"/>
  <path class="cls-3" d="M337.86,310.32c-.75,1.1-1.23,2.05-1.93,2.81-14.48,15.71-28.98,31.4-43.5,47.07-2.63,2.84-3.54,2.92-6.39.29-16.49-15.21-32.95-30.47-49.41-45.72-3.47-3.21-6.88-6.48-10.4-9.63-2.21-1.97-2.42-3.74-.32-5.99,14.54-15.65,29.02-31.36,43.53-47.04,2.63-2.84,3.53-2.92,6.39-.29,16.49,15.21,32.95,30.47,49.41,45.72,3.54,3.28,7.11,6.54,10.6,9.89.8.76,1.3,1.83,2.03,2.88Z"/>
  <path class="cls-2" d="M134.91,31.77c.81,1.14,2.01,2.29,2.57,3.69,8.22,20.53,16.36,41.08,24.51,61.64,1.5,3.79,2.96,7.6,4.55,11.36,1.07,2.53.33,4.05-2.17,5.04-18.57,7.34-37.12,14.7-55.67,22.09-2.68,1.07-4.2.26-5.24-2.37-9.66-24.46-19.36-48.9-29.11-73.32-1.08-2.7-.38-4.21,2.27-5.25,18.47-7.28,36.92-14.62,55.38-21.94.69-.27,1.42-.45,2.91-.92Z"/>
  <path class="cls-3" d="M358.43,153.98c-.72,1.22-1.14,2.2-1.79,2.98-12.64,15.05-25.29,30.08-37.98,45.09-2.63,3.12-3.55,3.21-6.61.64-19.89-16.72-39.77-33.46-59.63-50.22-2.81-2.37-2.88-3.4-.58-6.13,12.44-14.79,24.88-29.58,37.36-44.35,3.2-3.78,3.84-3.84,7.54-.73,19.64,16.52,39.26,33.06,58.87,49.62,1.01.86,1.81,1.97,2.83,3.1Z"/>
  <path class="cls-3" d="M102.93,214.9c.89,1.06,2.13,2.06,2.75,3.35,5.64,11.81,11.19,23.67,16.74,35.53,4.92,10.49,9.83,20.99,14.7,31.51,1.77,3.82,1.46,4.56-2.44,6.39-17,7.98-34,15.96-51.01,23.92-3.3,1.54-4.36,1.23-5.85-1.95-10.54-22.44-21.06-44.88-31.56-67.34-1.68-3.6-1.34-4.43,2.37-6.17,17.09-8.04,34.19-16.05,51.3-24.07.77-.36,1.58-.62,3-1.17Z"/>
  <path class="cls-3" d="M208.35,12.31c-.27-2.35.71-3.59,3.11-3.95,18.03-2.72,36.05-5.5,54.08-8.23,3.16-.48,4.24.41,4.74,3.66,3.17,20.78,6.35,41.57,9.52,62.35.73,4.77.28,5.46-4.34,6.18-17.49,2.71-34.99,5.37-52.47,8.08-2.62.41-4.41-.19-4.86-3.17-3.19-21.11-6.41-42.21-9.62-63.31-.08-.53-.11-1.07-.16-1.6Z"/>
  <path class="cls-1" d="M157.5,390.95c-.86-1.36-2.21-2.62-2.49-4.09-3.12-16.31-6.07-32.66-9.06-49-.58-3.16-1.11-6.33-1.77-9.48-.57-2.73.3-4.29,3.17-4.81,16.98-3.08,33.95-6.2,50.91-9.35,2.6-.48,3.84.7,4.27,3.09,3.62,19.71,7.23,39.42,10.86,59.13.49,2.65-.59,4.01-3.23,4.49-16.98,3.08-33.94,6.22-50.91,9.34-.32.06-.63.13-.94.19l-.8.5Z"/>
  <path class="cls-1" d="M18.01,121.28c1.73.52,2.56.74,3.37,1.01,16.8,5.62,33.6,11.24,50.39,16.88,3.65,1.22,4.07,2.07,2.86,5.7-4.91,14.66-9.84,29.32-14.78,43.97-1.19,3.53-2.17,4.04-5.75,2.85-17.01-5.67-34-11.4-51.02-17.04-2.86-.95-3.66-2.49-2.68-5.35,5.06-14.84,10-29.72,15.09-44.54.47-1.37,1.76-2.45,2.52-3.47Z"/>
  <path class="cls-1" d="M360.91,229.73c7.08,1.94,14.01,3.83,20.95,5.74,8.48,2.34,16.96,4.69,25.44,7.03,3.98,1.1,4.45,1.95,3.33,5.98-3.29,11.89-6.56,23.79-9.87,35.68-1.25,4.51-1.97,4.9-6.33,3.7-14.69-4.06-29.37-8.11-44.06-12.17-3.78-1.04-4.28-1.97-3.22-5.78,3.38-12.2,6.77-24.4,10.12-36.61.55-2.01,1.28-3.67,3.64-3.56Z"/>
</svg>