<?xml version="1.0" encoding="UTF-8"?>
<svg id="Layer_1" data-name="Layer 1" xmlns="http://www.w3.org/2000/svg" viewBox="0 0 458.05 195.01">
  <defs>
    <style>
      .cls-1 {
        fill: #4fabcc;
      }

      .cls-1, .cls-2, .cls-3, .cls-4, .cls-5, .cls-6, .cls-7, .cls-8, .cls-9, .cls-10 {
        stroke-width: 0px;
      }

      .cls-2 {
        fill: #060606;
      }

      .cls-3 {
        fill: #4eabcb;
      }

      .cls-4 {
        fill: #50accc;
      }

      .cls-5 {
        fill: #efcc19;
      }

      .cls-6 {
        fill: #efcc1b;
      }

      .cls-7 {
        fill: #efcb17;
      }

      .cls-8 {
        fill: #50abcc;
      }

      .cls-9 {
        fill: #090909;
      }

      .cls-10 {
        fill: #070707;
      }
    </style>
  </defs>
  <path class="cls-1" d="M181.12,136.27h20.04v-24.25c5.45,0,10.58-.02,15.72.05.35,0,.99.77.98,1.16-.22,8.77.93,17.61-1.02,26.3-1.42,6.33-5.73,10.45-11.87,11.03-8.56.8-17.3,1.02-25.83.2-9.27-.89-14.25-7.22-14.31-16.69-.13-22.15-.14-44.31,0-66.46.07-10.24,5.98-16.58,16.48-17.22,7.39-.45,14.87-.27,22.25.39,8.27.74,13.16,6.26,13.94,14.56.25,2.71.4,5.44.41,8.16.05,10.02-.02,20.03.05,30.05.01,1.77-.45,2.35-2.29,2.33-10.47-.08-20.94-.04-31.41-.04q-3.12,0-3.12,3.05c0,8.27,0,16.54,0,24.81,0,.81,0,1.63,0,2.57ZM181.34,65.22c-.1.4-.21.61-.21.82-.01,7.82.02,15.63-.05,23.45-.01,1.54.71,1.72,1.95,1.71,5.31-.04,10.63-.1,15.94.03,1.89.04,2.26-.65,2.24-2.38-.09-7.13-.04-14.27-.04-21.4,0-.72,0-1.44,0-2.23h-19.83Z"/>
  <path class="cls-5" d="M289.87,102.21c0-10.7-.09-21.39.06-32.09.04-2.75.48-5.62,1.35-8.22,2.23-6.72,7.59-9.89,14.22-10.2,7.93-.37,15.93-.31,23.83.37,7.54.65,12.58,6.37,13.41,13.87.28,2.55.44,5.13.45,7.7.04,20.1.06,40.2-.03,60.31-.01,2.69-.5,5.44-1.21,8.04-1.67,6.09-5.94,9.77-12.06,10.59-5.38.72-10.87.65-16.31.77-2.95.07-5.95.09-8.84-.37-9.76-1.55-14.77-7.51-14.84-17.55-.08-11.07-.02-22.15-.02-33.23ZM306.29,66.56c0,1.04,0,1.85,0,2.67,0,22.08,0,44.17,0,66.25,0,.46.03.91,0,1.37-.07,1.2.47,1.53,1.65,1.52,5.39-.07,10.78-.16,16.16-.01,2.09.06,2.49-.64,2.48-2.58-.07-22.31-.04-44.62-.05-66.93,0-.73-.08-1.46-.13-2.28h-20.12Z"/>
  <path class="cls-4" d="M16.38,151.17H0V50.38c.6-.07,1.1-.18,1.61-.18,11,0,22.01-.11,33.01.03,5.69.07,10.99,1.52,14.7,6.35,2.82,3.67,3.6,8.06,3.61,12.46.11,26.79.05,53.58.05,80.37,0,.52-.08,1.04-.13,1.72h-16.42v-85.84h-20.05v85.87Z"/>
  <path class="cls-1" d="M133.41,65.23h-20.04v85.92h-16.38V50.39c.55-.07,1.06-.18,1.56-.18,11-.01,22.01-.12,33.01.04,5.43.08,10.57,1.4,14.27,5.85,3.18,3.83,3.95,8.44,3.95,13.23.02,26.41,0,52.82,0,79.23v2.6h-16.38v-85.93Z"/>
  <path class="cls-7" d="M259.13,153.27h-16.51v-86.71h-14.22v-15.02h14.19c0-.98,0-1.78,0-2.57,0-10.09-.04-20.19.03-30.28.01-2.03.21-4.11.68-6.08,1.74-7.29,6.58-11.76,14.44-12.35,6.78-.51,13.63-.11,20.61-.11v14.74h-19.16v36.42h17.85v15.11h-17.91v86.83Z"/>
  <path class="cls-5" d="M435.65,51.46c5.15,0,9.85,0,14.55,0q3.62,0,3.61,3.5c0,3.11-.08,6.23.03,9.33.06,1.72-.57,2.25-2.24,2.22-4.48-.08-8.95-.03-13.43-.03h-2.41c-.05.95-.12,1.68-.12,2.41,0,22.31.02,44.62-.05,66.93,0,2.06.49,2.81,2.65,2.74,4.85-.15,9.71,0,14.57-.08,1.58-.03,2.17.46,2.13,2.07-.08,3.64-.08,7.29,0,10.93.04,1.56-.64,1.95-2.05,1.92-5.99-.12-12.02.21-17.96-.34-8.75-.81-14.63-5.35-15.7-15.8-.27-2.63-.33-5.3-.34-7.95-.03-20.11-.01-40.22-.01-60.33,0-.74,0-1.47,0-2.5-1.57,0-2.91.03-4.25,0-3.31-.09-6.63-.21-9.94-.32-.13-3.3-.27-6.6-.39-9.9-.04-.99.05-1.98-.03-2.96-.11-1.38.46-1.89,1.84-1.87,3.34.06,6.68-.11,10.01.06,2.12.11,2.84-.42,2.81-2.69-.13-10.24,0-20.49-.1-30.73-.02-2.02.62-2.63,2.61-2.56,3.79.14,7.59.15,11.38,0,2.15-.09,2.9.51,2.87,2.77-.11,10.17-.05,20.34-.05,30.5v2.67Z"/>
  <path class="cls-6" d="M357.18,51.53h16.21c.15.97.29,1.89.49,3.14,7.05-5.02,14.85-2.58,22.59-3.29,0,4.81.01,9.26,0,13.72,0,1.49-1.13,1.35-2.12,1.35-5.99,0-11.99.1-17.98-.05-2.16-.05-2.81.51-2.81,2.74.08,27.16.03,54.33.1,81.49,0,2.12-.44,2.91-2.71,2.81-4.53-.18-9.06-.05-13.76-.05V51.53Z"/>
  <path class="cls-3" d="M82.96,151.31c-5.04,0-9.96.04-14.88-.06-.46,0-1.05-.78-1.33-1.32-.22-.42-.05-1.04-.05-1.57,0-31.63,0-63.27,0-94.9q0-3.23,3.22-3.23c3.79,0,7.59.04,11.38-.02,1.33-.02,1.89.37,1.89,1.81-.03,32.77-.03,65.55-.04,98.32,0,.22-.08.43-.2.97Z"/>
  <path class="cls-10" d="M401.59,194.32c-.29.14-.34.18-.41.19-3.34.66-5.8-.35-7.32-3.57-.64-1.35-1.7-2.49-2.58-3.73q-1.47-2.08-4.24-1.9v9.08h-5.01v-23.45c3.81,0,7.44-.2,11.04.06,3.42.25,5.69,2.45,6.22,5.37.7,3.85-.58,6.32-4.46,8.41,2.23,3.14,4.44,6.27,6.76,9.53ZM387.05,174.4v7.24c5.71.48,7.6-.4,7.64-3.51.04-3.12-1.62-3.96-7.64-3.73Z"/>
  <path class="cls-2" d="M355.09,170.9h4.65c0,3.57-.03,7.1.02,10.63.02,1.51.09,3.04.36,4.52.54,3,2.51,4.66,5.46,4.8,3.1.14,5.31-1.35,5.95-4.43.41-1.97.39-4.05.43-6.09.06-3.09.02-6.18.02-9.37h4.93c-.24,5.46-.03,11-.84,16.38-.8,5.35-5.23,7.96-11.18,7.63-5.32-.3-9.32-3.59-9.7-8.72-.37-5.03-.08-10.11-.08-15.35Z"/>
  <path class="cls-8" d="M84.05,25.97c-.03,5.09-4.11,8.99-9.44,9.02-4.88.03-9.11-4.12-9.06-8.9.06-5.35,4.15-9.65,9.16-9.63,5.06.03,9.36,4.41,9.34,9.51Z"/>
  <path class="cls-2" d="M316.05,174.47v5.9h8.51v3.67h-8.49v6.77h10.42v3.57h-15.21v-23.37h15.21v3.46h-10.45Z"/>
  <path class="cls-9" d="M350.34,176.83c-6.67-3.33-11.18-3.21-14.07.29-2.36,2.85-2.41,8.13-.11,11.04,2.84,3.59,7.07,3.75,14.03.54.62,3.96.32,4.46-3.42,5.61-7.17,2.22-14.52-1.03-16.74-7.39-3.21-9.2,4.51-18,14.36-16.37.6.1,1.19.22,1.78.36,3.97.97,4.4,1.56,4.17,5.92Z"/>
  <path class="cls-10" d="M305.93,172.76c-.39,1.19-.69,2.11-1.02,3.1-1.47-.53-2.83-1.15-4.26-1.48-1.07-.25-2.35-.41-3.33-.05-.91.33-2.06,1.36-2.15,2.18-.09.82.83,2.12,1.65,2.57,1.57.85,3.42,1.16,5.11,1.82,2.6,1.02,4.62,2.61,4.96,5.65.47,4.16-1.51,7.04-5.6,8.06-4.18,1.03-7.9.04-11.39-2.56.37-1.23.71-2.37.9-3.01,2.63.8,5.13,1.8,7.72,2.25,1.77.31,3.53-.48,3.91-2.62.39-2.17-1.01-3.15-2.81-3.75-1.64-.56-3.34-.99-4.92-1.71-2.96-1.34-4.41-3.83-4.1-6.67.32-2.96,2.14-4.93,5.32-5.75,3.61-.93,6.86-.14,10.02,1.97Z"/>
  <path class="cls-10" d="M458.05,171.11c-2.53,3.87-4.91,7.72-7.51,11.42-1.24,1.77-1.8,3.54-1.65,5.68.14,2.02.03,4.07.03,6.22h-4.89c0-2.49.1-5.04-.05-7.57-.07-1.14-.4-2.38-1-3.34-2.59-4.16-5.32-8.22-8.22-12.66,1.34,0,2.37.11,3.38-.03,1.39-.18,2.2.35,2.9,1.53,1.7,2.86,3.53,5.64,5.52,8.79,1.49-2.36,3.1-4.44,4.22-6.77,1.51-3.14,3.72-4.3,7.27-3.27Z"/>
  <path class="cls-2" d="M421.26,174.59h-7.94v-3.62h20.73v3.56h-7.9v19.92h-4.9v-19.85Z"/>
  <path class="cls-9" d="M410.04,194.45h-4.69v-23.5h4.69v23.5Z"/>
</svg>