<?xml version="1.0" encoding="UTF-8"?>
<svg id="Layer_1" data-name="Layer 1" xmlns="http://www.w3.org/2000/svg" viewBox="0 0 555.41 172.06">
  <defs>
    <style>
      .cls-1 {
        fill: #fefefe;
      }

      .cls-1, .cls-2, .cls-3, .cls-4 {
        stroke-width: 0px;
      }

      .cls-2 {
        fill: #efcc17;
      }

      .cls-3 {
        fill: #50abcc;
      }

      .cls-4 {
        fill: #080808;
      }
    </style>
  </defs>
  <path class="cls-3" d="M342.79,93.49h-31.88v26.76h17.4c.05-.96.13-1.9.14-2.85.01-5.52.06-11.04-.03-16.55-.03-1.78.61-2.34,2.33-2.3,3.47.09,6.94.08,10.41,0,1.64-.04,2.16.59,2.13,2.2-.09,5.61.04,11.22-.09,16.82-.23,9.64-3.76,14.42-13.2,15.64-6.81.88-13.88.6-20.74-.06-9.21-.88-12.76-7.24-12.84-15.79-.17-18.42-.08-36.85-.02-55.28,0-2.29.33-4.61.81-6.85,1.31-6.08,6-10.36,12.31-10.66,6.75-.32,13.53-.36,20.28-.01,7.6.39,12.98,5.6,13.22,13.18.37,11.65.14,23.31.16,34.97,0,.15-.14.31-.38.78ZM310.75,57.43c0,7.41.03,14.34-.02,21.27,0,1.44.64,1.85,1.94,1.84,4.62-.03,9.25-.04,13.87,0,1.32.01,1.94-.37,1.93-1.81-.05-6.49.01-12.98-.08-19.48,0-.62-.84-1.75-1.3-1.76-5.32-.13-10.64-.08-16.33-.08Z"/>
  <path class="cls-2" d="M453.87,90.25c0,9.61.06,19.22-.02,28.83-.05,5.99-1.73,11.29-7.51,14.25-1.63.83-3.52,1.6-5.3,1.63-7.44.1-14.94.46-22.3-.34-8.53-.92-11.69-7.23-11.8-14.13-.32-20.1-.26-40.22-.04-60.32.1-8.66,5.24-13.99,14.22-14.57,6.97-.45,14.04-.14,21.01.48,6.13.54,10.46,5.18,11.29,11.37.47,3.51.41,7.09.43,10.65.06,7.38.02,14.77.02,22.15ZM421.59,58.74c-.14.4-.25.57-.25.74-.02,20.3-.02,40.6-.08,60.9,0,1.65.78,1.88,2.14,1.86,4.27-.05,8.55-.16,12.82.04,2.45.11,3.15-.62,3.14-3.1-.1-19.23-.06-38.46-.06-57.69,0-.86-.08-1.73-.12-2.73h-17.59Z"/>
  <path class="cls-3" d="M165.51,133.54h-14.49V44.54c.92-.07,1.69-.17,2.46-.17,9.43,0,18.86-.01,28.29,0,6.22.01,11.49,2.03,14.13,8.03,1.18,2.69,1.83,5.84,1.85,8.79.14,23.49.08,46.99.07,70.48,0,.52-.09,1.04-.16,1.75h-14.41V57.83h-17.74v75.71Z"/>
  <path class="cls-3" d="M250.86,57.82v75.64h-14.17V44.51c.84-.05,1.69-.13,2.55-.13,8.99-.01,17.97-.02,26.96,0,11.34.02,16.98,5.39,17.04,16.77.13,23.31.04,46.63.03,69.95,0,.78-.14,1.55-.23,2.42h-14.34V57.82h-17.83Z"/>
  <path class="cls-2" d="M379.82,135.23h-14.57V58.7h-12.61v-13.24h12.57c0-1.22,0-2.16,0-3.1,0-8.81-.03-17.63.01-26.44.03-4.87,1.19-9.32,5.17-12.61,2.66-2.19,5.81-3.12,9.13-3.22,5.6-.17,11.2-.05,17.02-.05v13.11h-16.69v32.07h15.6v13.43h-15.63v76.58Z"/>
  <path class="cls-2" d="M520.71,58.73c-3.66,0-6.94-.08-10.21.03-1.9.06-2.78-.45-2.67-2.54.15-2.84.12-5.7,0-8.54-.07-1.73.52-2.38,2.28-2.33,3.37.1,6.75.03,10.46.03.05-1.04.14-1.97.14-2.9.01-8.72.07-17.44-.04-26.16-.03-2.15.67-2.78,2.74-2.72,3.97.13,7.94.04,12.15.04v31.74c4.38,0,8.53.16,12.66-.06,2.68-.14,3.69.58,3.4,3.38-.27,2.55-.13,5.16-.03,7.74.07,1.74-.57,2.36-2.31,2.33-4.44-.09-8.87-.03-13.72-.03v2.74c0,19.31.04,38.62-.05,57.93-.01,2.36.66,3.11,3.01,3,3.91-.18,7.83.03,11.74-.08,1.79-.05,2.59.4,2.49,2.36-.14,2.93.05,5.88-.11,8.8-.04.69-.94,1.92-1.42,1.91-6.46-.18-12.99-.08-19.36-.99-5.69-.81-9.24-4.72-10.18-10.53-.51-3.14-.92-6.34-.94-9.52-.09-17.44-.04-34.88-.04-52.33,0-.96,0-1.93,0-3.3Z"/>
  <path class="cls-2" d="M500.77,45.33v13.31h-19.83v76.68h-14.53V45.61h14.35c.1.73.21,1.49.35,2.54,6.19-4.17,12.94-2.32,19.65-2.81Z"/>
  <path class="cls-3" d="M209.7,44.48h14.32v89.13c-4.28,0-8.69.03-13.1-.05-.4,0-.96-.66-1.14-1.13-.2-.55-.07-1.23-.07-1.85,0-27.66,0-55.32,0-82.98v-3.12Z"/>
  <path class="cls-3" d="M58.98,53.7c.76.66,1.62,1.16,2.13,1.89,5.31,7.68,10.55,15.4,15.84,23.09,1.21,1.75.95,3.11-.78,4.29-5.8,3.96-11.59,7.93-17.38,11.91-1.83,1.26-3.23.94-4.49-.91-5.19-7.66-10.4-15.29-15.66-22.9-1.28-1.86-1.03-3.23.82-4.48,5.74-3.9,11.44-7.84,17.18-11.74.64-.43,1.39-.7,2.34-1.16Z"/>
  <path class="cls-3" d="M102.96,108.25c-.55.84-.89,1.58-1.42,2.15-3.61,3.93-7.3,7.79-10.89,11.73-1.61,1.78-3.11,1.73-4.79.17-5.21-4.84-10.44-9.66-15.67-14.48-1.66-1.53-1.56-2.97-.03-4.57,3.62-3.8,7.21-7.62,10.73-11.52,1.7-1.88,3.23-1.82,5-.18,5.14,4.79,10.33,9.53,15.45,14.33.67.63,1.07,1.54,1.64,2.37Z"/>
  <path class="cls-2" d="M40.22,22.79c.58.62,1.6,1.27,1.98,2.19,2.65,6.41,5.16,12.87,7.73,19.31.71,1.79.34,3.11-1.55,3.86-4.63,1.82-9.26,3.65-13.88,5.51-1.96.79-3.25.24-4.02-1.71-2.52-6.36-5.04-12.72-7.58-19.08-.69-1.74-.54-3.16,1.39-3.93,4.7-1.88,9.42-3.74,14.13-5.6.41-.16.84-.25,1.8-.54Z"/>
  <path class="cls-3" d="M89.78,43.46c1.03.63,1.84,1,2.5,1.55,4.97,4.17,9.94,8.36,14.87,12.58,2.33,1.99,2.35,2.93.35,5.32-2.91,3.48-5.89,6.9-8.75,10.42-1.61,1.98-3.17,1.91-5,.35-4.93-4.22-9.92-8.38-14.85-12.6-2.33-1.99-2.35-2.93-.35-5.32,2.91-3.48,5.82-6.96,8.79-10.38.65-.75,1.58-1.25,2.44-1.91Z"/>
  <path class="cls-3" d="M30.64,79.4c.51.49,1.47,1.03,1.87,1.86,2.91,5.99,5.71,12.05,8.54,18.08.86,1.83.23,3.06-1.53,3.87-4.27,1.98-8.54,3.98-12.8,5.98-1.96.91-3.35.52-4.31-1.56-2.7-5.9-5.48-11.76-8.25-17.63-.71-1.5-.67-2.9.9-3.66,4.63-2.26,9.32-4.39,14-6.56.31-.15.68-.16,1.58-.37Z"/>
  <path class="cls-3" d="M85.59,33.31c-.67.51-1.52,1.66-2.55,1.86-4.45.87-8.95,1.47-13.43,2.15-1.81.28-2.99-.52-3.27-2.31-.9-5.71-1.83-11.42-2.46-17.16-.09-.84,1.23-2.48,2.13-2.67,4.52-.93,9.11-1.52,13.69-2.2,1.69-.25,2.83.53,3.1,2.19.94,5.79,1.79,11.6,2.79,18.14Z"/>
  <path class="cls-3" d="M64.91,128.2c-.67.54-1.5,1.71-2.55,1.95-3.97.92-8,1.53-12.01,2.27-2.18.4-3.35-.48-3.73-2.66-.85-4.89-1.79-9.76-2.69-14.64-.35-1.88.58-2.91,2.29-3.24,4.09-.79,8.19-1.51,12.29-2.23,1.59-.28,2.91.17,3.25,1.91,1.05,5.3,2.02,10.62,3.15,16.65Z"/>
  <path class="cls-3" d="M16.04,71.73c-5.34-1.84-10.17-3.4-14.88-5.24-.67-.26-1.34-2.02-1.11-2.84,1.07-3.85,2.42-7.63,3.73-11.41.56-1.6,1.74-2.19,3.39-1.64,4.3,1.43,8.6,2.88,12.9,4.33,1.83.62,2.55,1.79,1.9,3.71-1.23,3.62-2.33,7.29-3.7,10.86-.37.95-1.56,1.59-2.22,2.23Z"/>
  <path class="cls-4" d="M545.27,159.76c1.36-2.09,2.8-3.9,3.78-5.93,1.32-2.73,3.17-3.86,6.35-2.88-1.81,2.76-3.51,5.63-5.49,8.29-2.01,2.69-2.99,5.54-2.56,8.89.13,1.05.02,2.13.02,3.34h-4.52c2.36-8.73-4.15-13.95-8.26-20.93-.18,1.49-.28,2.31-.41,3.38h-7.01v17.57h-4.34v-17.48h-6.96v-3.28c5.97,0,11.98-.24,17.96.13,1.99.12,4.45-1.66,6.13.83,1.24,1.84,2.39,3.72,3.6,5.58.51.78,1.06,1.54,1.71,2.49Z"/>
  <path class="cls-3" d="M120.81,101.33c-4.69-1.33-8.91-2.41-13.03-3.8-.68-.23-1.38-1.94-1.22-2.8.59-3.04,1.38-6.08,2.5-8.97.34-.87,2.09-1.92,2.96-1.74,4,.82,7.95,1.92,11.82,3.23.8.27,1.77,1.96,1.61,2.8-.58,3.14-1.48,6.23-2.52,9.25-.3.87-1.47,1.43-2.13,2.03Z"/>
  <path class="cls-4" d="M492.66,171.5h-4.39v-20.74c3.19,0,6.28-.17,9.35.05,3.05.22,5.41,2.34,5.97,4.87.66,2.99-.34,4.96-3.91,7.56,1.87,2.65,3.74,5.29,5.72,8.11-2.78.63-4.99.52-6.38-2.38-.68-1.41-1.71-2.71-2.8-3.86-.8-.85-1.95-1.37-3.55-2.45v8.84ZM492.65,160.96c2.37-.74,4.5-1.11,6.25-2.13.52-.3.47-2.73-.14-3.64-1.49-2.21-3.89-1.28-6.11-1.21v6.97Z"/>
  <path class="cls-4" d="M479.48,150.75h3.66c0,4.83.36,9.63-.1,14.34-.46,4.66-4.2,7.08-9.43,6.97-5.03-.11-8.25-2.7-8.99-7.29-.2-1.22-.31-2.47-.33-3.71-.04-3.36-.02-6.73-.02-10.23h4.22c0,3.33-.08,6.61.04,9.89.06,1.56.35,3.16.8,4.66.65,2.12,2.26,2.97,4.48,3.01,2.31.05,4.05-.72,4.84-2.92.47-1.31.75-2.74.8-4.12.11-3.46.04-6.92.04-10.58Z"/>
  <path class="cls-3" d="M208.82,22.84c.03-4.5,3.69-8.34,7.95-8.36,4.5-.01,8.4,3.81,8.42,8.28.02,4.63-3.62,8.11-8.45,8.09-4.39-.02-7.95-3.62-7.93-8.01Z"/>
  <path class="cls-4" d="M425.67,150.76h13.53c.04,1,.09,1.92.14,3.17h-9.36v5.21h7.36v3.23h-7.33v5.94h9.17v3.17h-13.5v-20.72Z"/>
  <path class="cls-4" d="M460.21,152.02v3.84c-7.01-2.74-10.16-2.54-12.6.78-1.74,2.36-1.73,7.02.01,9.34,2.34,3.12,6.21,3.36,12.36.75.63,3.42.14,4.1-3.24,4.84-5.04,1.1-9.63.48-12.92-3.86-2.64-3.48-2.77-7.51-.93-11.32,2.1-4.35,6.01-6.21,10.72-5.93,2.23.13,4.41,1.02,6.59,1.56Z"/>
  <path class="cls-4" d="M406.8,169.4c.44-1.05.81-1.92,1.01-2.4,2.39.66,4.52,1.49,6.72,1.78,1.6.21,3.26-.38,3.45-2.47.17-1.87-1.05-2.66-2.63-3.13-1.27-.38-2.54-.8-3.78-1.28-2.73-1.06-4.21-3.27-4.01-5.92.21-2.77,2.12-4.81,5.05-5.38,3.03-.59,5.79.02,8.45,1.94-.28.88-.57,1.77-.77,2.4-2.19-.44-4.14-1.1-6.09-1.11-.92,0-1.84,1.24-2.76,1.91.73.89,1.28,2.08,2.22,2.6,1.44.81,3.18,1.07,4.72,1.73,2.58,1.11,3.85,3.38,3.59,6.18-.26,2.81-1.88,4.68-4.69,5.38-3.75.94-7.18.33-10.47-2.24Z"/>
  <path class="cls-4" d="M513,171.51h-3.96v-20.68h3.96v20.68Z"/>
  <path class="cls-1" d="M310.75,57.43c5.69,0,11.02-.05,16.33.08.47.01,1.29,1.14,1.3,1.76.1,6.49.03,12.98.08,19.48.01,1.44-.61,1.82-1.93,1.81-4.62-.05-9.25-.03-13.87,0-1.3,0-1.95-.41-1.94-1.84.05-6.93.02-13.86.02-21.27Z"/>
  <path class="cls-1" d="M421.59,58.74h17.59c.05,1.01.12,1.87.12,2.73,0,19.23-.04,38.46.06,57.69.01,2.48-.68,3.21-3.14,3.1-4.26-.2-8.55-.09-12.82-.04-1.37.02-2.15-.21-2.14-1.86.05-20.3.06-40.6.08-60.9,0-.17.11-.33.25-.74Z"/>
  <path class="cls-1" d="M492.65,160.96v-6.97c2.22-.07,4.62-1,6.11,1.21.61.9.66,3.33.14,3.64-1.75,1.02-3.88,1.39-6.25,2.13Z"/>
</svg>